<svg xmlns="http://www.w3.org/2000/svg" xmlns:xlink="http://www.w3.org/1999/xlink" viewBox="0 0 1024 1024">
<path d="M512 128c212.064 0 384 171.936 384 384s-173.632 384-384 384C299.936 896 128 724.064 128 512S299.936 128 512 128z m-126.4 575.968c-1.728 40.8 3.52 76.8 36.32 115.2 28.576 8.32 58.816 12.832 90.08 12.832 81.984 0 156.8-30.848 213.408-81.536-77.12 7.2-161.6-5.952-289.216-61.856-11.616 7.52-18.976 12.608-50.592 15.36z m-193.44-202.368c0 123.744 53.536 214.272 135.744 272.16-6.08-25.6-8.352-48.448-4.96-91.68-21.344-17.6-34.944-39.264-34.624-82.08-50.816-42.88-82.88-75.712-96.16-98.4zM544 448c-14.944 0-29.12-3.424-41.728-9.504-10.976 12.96-21.376 26.432-31.2 40.512-4.832 6.912-15.36 23.776-31.616 50.624a95.872 95.872 0 0 1 36.384 106.432c155.52 68.16 302.56 62.048 325.952 11.904 23.36-50.112-35.968-139.776-189.504-228.48A95.68 95.68 0 0 1 544 448z m-160 128a32 32 0 1 0 0 64 32 32 0 0 0 0-64z m-161.92-199.2c-16.576 35.52 16.96 99.68 94.08 163.2a95.936 95.936 0 0 1 59.616-27.648c19.936-35.008 30.72-52.736 42.88-70.08 10.944-15.648 22.528-30.656 38.432-49.44-5.696-12.128-8.96-25.6-9.088-39.872-118.176-30.4-206.88-16.96-225.92 23.84z m415.136-47.84c1.824 7.36 3.296 19.104 2.336 32.416 88.96 48.704 153.76 105.056 192.32 160.704 0-118.656-34.208-176.064-75.52-210.976-49.792-5.92-69.952-4.064-119.136 17.856zM544 320a32 32 0 1 0 0 64 32 32 0 0 0 0-64z m-32-128c-82.016 0-156.8 30.848-213.44 81.6 47.264-4.384 96-0.544 170.304 18.624A95.84 95.84 0 0 1 544 256c21.568 0 41.472 7.104 57.504 19.104 35.968-17.28 62.016-25.824 87.136-29.984A318.528 318.528 0 0 0 512 192z"></path>
</svg>
