<svg xmlns="http://www.w3.org/2000/svg" xmlns:xlink="http://www.w3.org/1999/xlink" viewBox="0 0 1024 1024">
<path d="M274.773333 419.498667h154.624v76.8H274.773333v-76.8z m0-154.965334h399.701334V341.333333H274.773333V264.533333z M92.16 105.472v832.170667h179.541333v-76.8H168.96V182.272h678.229333v227.669333h76.8V105.472H92.16z M645.12 720.213333c91.818667-1.024 165.888-75.776 165.888-167.936 0-92.842667-75.093333-167.936-167.936-167.936s-167.936 75.093333-167.936 167.936c0 92.16 74.069333 166.912 165.888 167.936-129.365333 1.024-238.933333 90.794667-279.210667 215.722667h81.92c35.84-81.92 111.616-138.922667 198.997334-138.922667s163.498667 56.661333 198.997333 138.922667h82.261333c-40.277333-124.586667-149.845333-214.698667-278.869333-215.722667z m-2.389333-76.8c-50.176 0-91.477333-40.96-91.477334-91.477333 0-50.176 40.96-91.477333 91.477334-91.477333 50.176 0 91.477333 40.96 91.477333 91.477333s-40.96 91.477333-91.477333 91.477333z"></path>
</svg>
